<?xml version="1.0" standalone="no"?>
<!DOCTYPE svg PUBLIC "-//W3C//DTD SVG 20010904//EN"
 "http://www.w3.org/TR/2001/REC-SVG-20010904/DTD/svg10.dtd">
<svg version="1.0" xmlns="http://www.w3.org/2000/svg"
 width="1024.000000pt" height="1024.000000pt" viewBox="0 0 1024.000000 1024.000000"
 preserveAspectRatio="xMidYMid meet">

<g transform="translate(0.000000,1024.000000) scale(0.100000,-0.100000)"
fill="#000000" stroke="none">
<path d="M3576 6539 c-202 -26 -399 -104 -598 -235 -104 -69 -319 -288 -396
-402 l-62 -93 0 -982 c0 -594 4 -1029 11 -1102 24 -280 96 -505 219 -681 100
-145 312 -319 467 -384 37 -16 109 -40 158 -55 167 -48 253 -57 651 -62 l371
-5 27 98 c79 280 208 616 303 794 153 283 338 475 532 552 51 20 74 22 251 23
180 1 198 2 236 22 45 24 71 57 81 103 3 17 9 30 14 30 4 0 43 -13 87 -29 148
-55 277 -76 462 -75 146 0 176 3 265 27 361 96 618 356 743 748 29 92 45 187
57 338 l5 74 -38 37 c-27 25 -62 44 -110 59 -130 42 -319 17 -406 -52 -29 -23
-29 -24 -16 -75 27 -114 9 -214 -46 -263 -32 -28 -102 -59 -132 -59 -44 0 -58
-18 -96 -125 l-35 -100 0 112 -1 112 -30 16 c-16 8 -45 28 -63 44 l-33 29 -79
-65 c-44 -36 -83 -67 -87 -69 -3 -2 15 29 41 68 86 131 86 129 57 201 -13 34
-38 125 -55 202 -62 277 -161 511 -285 676 -83 110 -231 251 -338 322 -242
161 -475 231 -773 231 -88 0 -196 -6 -240 -13 -106 -16 -295 -61 -295 -69 0
-4 17 -18 37 -32 73 -49 154 -122 209 -188 84 -101 83 -110 -3 -41 -157 125
-304 210 -463 267 -201 71 -408 96 -604 71z m2025 -1026 c37 -22 61 -74 61
-133 0 -116 -100 -184 -190 -130 -80 49 -83 198 -7 258 34 27 95 29 136 5z
m44 -912 c116 -88 294 -151 425 -151 62 0 64 -12 10 -67 -53 -56 -120 -101
-188 -126 -47 -18 -78 -22 -177 -22 -113 1 -124 2 -185 31 -83 39 -123 73
-149 127 -34 71 -25 154 22 206 34 36 76 52 134 48 42 -3 62 -11 108 -46z"/>
</g>
</svg>
