<svg xmlns="http://www.w3.org/2000/svg" viewBox="0 0 512 512" width="512" height="512">
  <defs>
    <linearGradient id="bg" x1="0%" y1="0%" x2="100%" y2="100%">
      <stop offset="0%" style="stop-color:#4DD4E8"/>
      <stop offset="100%" style="stop-color:#3BC4D8"/>
    </linearGradient>
  </defs>
  <rect width="512" height="512" rx="100" ry="100" fill="url(#bg)"/>
  <g transform="translate(56, 80)">
    <path d="M280 0c55 0 100 45 100 100v40c0 20-10 38-25 50l25 50c5 10 0 22-10 27l-20 10v73c0 30-25 55-55 55h-30c-30 0-55-25-55-55v-20h-30v20c0 30-25 55-55 55H95c-30 0-55-25-55-55V277l-20-10c-10-5-15-17-10-27l25-50c-15-12-25-30-25-50v-40c0-55 45-100 100-100h20c15 0 28 8 35 20 7-12 20-20 35-20h80z"
          fill="#2D3748"/>
    <ellipse cx="280" cy="120" rx="20" ry="25" fill="#2D3748"/>
    <circle cx="240" cy="140" r="15" fill="white"/>
    <path d="M300 200c30 0 55 25 55 55v25c0 15-12 27-27 27h-10c-15 0-27-12-27-27v-25c0-30 9-55 9-55z"
          fill="#2D3748"/>
    <path d="M310 240c0 8-5 15-15 20-5 3-10 5-15 5s-10-2-15-5c-10-5-15-12-15-20"
          fill="none" stroke="white" stroke-width="8" stroke-linecap="round"/>
  </g>
</svg>
